#!OML:ASF E:\basketball\basketball\Project 1\Capture day 1\Session 1\Subject.ASF
:FULLY-SPECIFIED
:DEGREES
79
root -33.8096 14.3739 -15.7526 12.6197 46.0328 2.49516
lowerback 11.2692 -0.385886 5.74684
upperback 4.75409 0.252611 2.56339
thorax -1.33343 0.213283 -0.599851
lowerneck -20.6283 27.6393 27.905
upperneck -6.51044 39.7947 -48.1474
head 20.6 16.5549 -9.06956
rclavicle 3.49861e-014 -7.95139e-015
rhumerus -24.8211 -2.71638 -78.5682
rradius 97.5329
rwrist -15.9589
rhand -2.94015 11.2706
rfingers 7.12502
rthumb 22.7714 -17.4054
lclavicle 3.49861e-014 -7.95139e-015
lhumerus -37.6741 -14.3912 101.667
lradius 66.8026
lwrist 11.7984
lhand -29.1505 29.4019
lfingers 7.12502
lthumb -2.49708 59.3671
rfemur -19.5173 6.36155 7.68462
rtibia 55.8639
rfoot -44.8751 -4.11946
rtoes -6.373
lfemur -28.1743 30.6763 -24.4023
ltibia 75.4595
lfoot -24.0039 1.26361
ltoes -58.4797
80
root -33.641 14.4292 -15.7501 12.4742 45.5123 2.21586
lowerback 11.838 -0.415083 5.76277
upperback 4.98255 0.276843 3.10013
thorax -1.40532 0.227946 -0.0528612
lowerneck -20.0099 27.7188 28.5108
upperneck -7.1595 40.1447 -49.1362
head 21.0797 16.8264 -9.29966
rclavicle 4.29375e-014 3.49861e-014
rhumerus -22.7098 -1.92301 -77.8333
rradius 98.2881
rwrist -15.1842
rhand -2.54113 10.1087
rfingers 7.12502
rthumb 23.1543 -18.5198
lclavicle 4.29375e-014 3.49861e-014
lhumerus -38.5994 -12.7955 101.7
lradius 64.4983
lwrist 12.5567
lhand -28.5561 29.7211
lfingers 7.12502
lthumb -1.92304 59.6922
rfemur -18.3127 6.50979 7.336
rtibia 53.9378
rfoot -44.5417 -3.97595
rtoes -8.2339
lfemur -28.5849 30.472 -24.0436
ltibia 75.8711
lfoot -22.3881 1.53615
ltoes -57.7029
81
root -33.4703 14.4937 -15.7387 12.5859 44.8444 2.17725
lowerback 12.3132 -0.372505 5.41533
upperback 5.24653 0.343839 3.59591
thorax -1.39075 0.260961 0.650199
lowerneck -18.1995 27.609 29.0839
upperneck -9.23981 40.1662 -50.9998
head 20.9632 17.3009 -9.96399
rclavicle -1.43125e-014 2.22639e-014
rhumerus -20.3666 -0.976692 -77.2081
rradius 98.8844
rwrist -14.1549
rhand -2.2283 8.94529
rfingers 7.12502
rthumb 23.4544 -19.6451
lclavicle -1.43125e-014 2.22639e-014
lhumerus -39.4989 -11.2814 101.744
lradius 62.0914
lwrist 13.5737
lhand -26.4267 31.8795
lfingers 7.12502
lthumb 0.133647 61.8592
rfemur -17.1846 6.62464 6.77205
rtibia 51.8228
rfoot -44.0244 -2.97022
rtoes -6.81004
lfemur -29.1317 30.2012 -23.8363
ltibia 76.0701
lfoot -20.7853 1.17072
ltoes -56.6355
82
root -33.2917 14.5654 -15.7196 12.9289 44.2091 2.20865
lowerback 12.5131 -0.295708 5.02198
upperback 5.55277 0.42019 4.0194
thorax -1.18336 0.30018 1.30343
lowerneck -15.5474 27.3963 29.3876
upperneck -12.4148 39.8518 -53.2863
head 20.1718 17.9188 -10.8692
rclavicle 6.12257e-014 -6.36111e-015
rhumerus -17.7587 -0.0884924 -76.796
rradius 99.2958
rwrist -12.7683
rhand -1.94475 7.8056
rfingers 7.12502
rthumb 23.7264 -20.7498
lclavicle 6.12257e-014 -6.36111e-015
lhumerus -40.2788 -9.92 101.762
lradius 59.5354
lwrist 14.9017
lhand -24.3804 34.6472
lfingers 7.12502
lthumb 2.10996 64.6165
rfemur -16.0619 6.90714 6.18551
rtibia 49.4514
rfoot -43.2027 -3.03846
rtoes -8.4508
lfemur -29.9011 29.792 -23.7702
ltibia 76.0722
lfoot -19.2308 1.3214
ltoes -55.9027
83
root -33.1088 14.6441 -15.7058 13.1704 43.8869 2.00121
lowerback 12.7358 -0.381918 4.92053
upperback 5.91345 0.314531 4.3954
thorax -0.92861 0.254089 1.76968
lowerneck -15.0149 27.6467 29.7837
upperneck -13.7779 40.2066 -54.5588
head 20.4165 18.2699 -11.0148
rclavicle 3.81667e-014 -5.40694e-014
rhumerus -14.8244 1.05757 -76.7388
rradius 100.246
rwrist -11.963
rhand -1.65642 6.16872
rfingers 7.12502
rthumb 24.0029 -22.3505
lclavicle 3.81667e-014 -5.40694e-014
lhumerus -40.8789 -8.45299 101.478
lradius 56.8617
lwrist 16.2021
lhand -25.1143 33.6874
lfingers 7.12502
lthumb 1.40114 63.6625
rfemur -14.7899 7.10909 5.80622
rtibia 46.802
rfoot -42.0257 -3.04313
rtoes -10.1782
lfemur -30.7748 28.9635 -23.4908
ltibia 75.9124
lfoot -17.8412 1.75626
ltoes -54.9997
